<?xml version="1.0" encoding="UTF-8" standalone="no"?>
<!-- Created with Inkscape (http://www.inkscape.org/) -->

<svg
   xmlns:dc="http://purl.org/dc/elements/1.1/"
   xmlns:cc="http://creativecommons.org/ns#"
   xmlns:rdf="http://www.w3.org/1999/02/22-rdf-syntax-ns#"
   xmlns:svg="http://www.w3.org/2000/svg"
   xmlns="http://www.w3.org/2000/svg"
   xmlns:sodipodi="http://sodipodi.sourceforge.net/DTD/sodipodi-0.dtd"
   xmlns:inkscape="http://www.inkscape.org/namespaces/inkscape"
   width="48px"
   height="48px"
   id="svg2996"
   version="1.1"
   inkscape:version="0.48.4 r9939"
   sodipodi:docname="quadtext.svg">
  <defs
     id="defs2998" />
  <sodipodi:namedview
     id="base"
     pagecolor="#ffffff"
     bordercolor="#666666"
     borderopacity="1.0"
     inkscape:pageopacity="0.0"
     inkscape:pageshadow="2"
     inkscape:zoom="7"
     inkscape:cx="26.38968"
     inkscape:cy="28.647532"
     inkscape:current-layer="svg2996"
     showgrid="true"
     inkscape:grid-bbox="true"
     inkscape:document-units="px"
     inkscape:window-width="1024"
     inkscape:window-height="719"
     inkscape:window-x="0"
     inkscape:window-y="25"
     inkscape:window-maximized="1"
     showguides="false">
    <inkscape:grid
       type="xygrid"
       id="grid3029"
       empspacing="2"
       visible="true"
       enabled="true"
       snapvisiblegridlinesonly="true"
       dotted="false"
       color="#008000"
       opacity="0.1254902"
       empcolor="#800000"
       empopacity="0.25098039" />
  </sodipodi:namedview>
  <metadata
     id="metadata3001">
    <rdf:RDF>
      <cc:Work
         rdf:about="">
        <dc:format>image/svg+xml</dc:format>
        <dc:type
           rdf:resource="http://purl.org/dc/dcmitype/StillImage" />
        <dc:title></dc:title>
      </cc:Work>
    </rdf:RDF>
  </metadata>
  <g
     id="layer1"
     inkscape:label="Layer 1"
     inkscape:groupmode="layer">
    <path
       sodipodi:type="arc"
       style="fill:#000080"
       id="path3036"
       sodipodi:cx="24"
       sodipodi:cy="24"
       sodipodi:rx="22"
       sodipodi:ry="22"
       d="M 46,24 A 22,22 0 1 1 2,24 22,22 0 1 1 46,24 z" />
    <path
       sodipodi:type="arc"
       style="fill:#ffffff"
       id="path3045"
       sodipodi:cx="14"
       sodipodi:cy="16"
       sodipodi:rx="4"
       sodipodi:ry="4"
       d="m 18,16 a 4,4 0 1 1 -8,0 4,4 0 1 1 8,0 z" />
    <path
       sodipodi:type="arc"
       style="fill:#ffffff"
       id="path3047"
       sodipodi:cx="24"
       sodipodi:cy="16"
       sodipodi:rx="4"
       sodipodi:ry="4"
       d="m 28,16 a 4,4 0 1 1 -8,0 4,4 0 1 1 8,0 z" />
    <path
       sodipodi:type="arc"
       style="fill:#ffffff"
       id="path3049"
       sodipodi:cx="34"
       sodipodi:cy="16"
       sodipodi:rx="4"
       sodipodi:ry="4"
       d="m 38,16 a 4,4 0 1 1 -8,0 4,4 0 1 1 8,0 z" />
    <path
       sodipodi:type="arc"
       style="fill:#ffffff"
       id="path3051"
       sodipodi:cx="24"
       sodipodi:cy="26"
       sodipodi:rx="4"
       sodipodi:ry="4"
       d="m 28,26 a 4,4 0 1 1 -8,0 4,4 0 1 1 8,0 z" />
    <path
       sodipodi:type="arc"
       style="fill:#ffffff"
       id="path3053"
       sodipodi:cx="24"
       sodipodi:cy="36"
       sodipodi:rx="4"
       sodipodi:ry="4"
       d="m 28,36 a 4,4 0 1 1 -8,0 4,4 0 1 1 8,0 z" />
  </g>
</svg>
